<svg width="18" height="18" viewBox="0 0 18 18" fill="none" xmlns="http://www.w3.org/2000/svg">
<path d="M15.9201 3.0132C15.5202 2.60553 15.0455 2.28213 14.523 2.06149C14.0005 1.84085 13.4405 1.72728 12.8749 1.72728C12.3093 1.72728 11.7492 1.84085 11.2267 2.06149C10.7042 2.28213 10.2295 2.60553 9.82965 3.0132L8.99985 3.85888L8.17004 3.0132C7.3624 2.19011 6.267 1.72771 5.12483 1.72771C3.98265 1.72771 2.88725 2.19011 2.07961 3.0132C1.27197 3.83629 0.818237 4.95264 0.818237 6.11667C0.818237 7.28069 1.27197 8.39704 2.07961 9.22013L2.90941 10.0658L8.99985 16.2727L15.0903 10.0658L15.9201 9.22013C16.3201 8.81265 16.6374 8.32884 16.8539 7.79633C17.0704 7.26383 17.1819 6.69307 17.1819 6.11667C17.1819 5.54026 17.0704 4.96951 16.8539 4.437C16.6374 3.9045 16.3201 3.42069 15.9201 3.0132Z" stroke="#767676" stroke-width="1.5" stroke-linecap="round" stroke-linejoin="round"/>
</svg>
